<svg width="33" height="40" viewBox="0 0 33 40" fill="none" xmlns="http://www.w3.org/2000/svg">
<path d="M28.1646 4.83539C21.7178 -1.61145 11.2829 -1.61214 4.83539 4.83539C-1.61129 11.282 -1.6123 21.7171 4.83539 28.1646L15.6282 38.9574C16.1098 39.439 16.8904 39.4389 17.3719 38.9574L28.1647 28.1646C34.6113 21.718 34.6123 11.283 28.1646 4.83539ZM26.4209 26.421L16.5 36.3419L6.57906 26.421C1.10868 20.9506 1.10868 12.0495 6.57906 6.57914C12.0495 1.10883 20.9503 1.10868 26.4209 6.57914C31.8913 12.0494 31.8913 20.9505 26.4209 26.421Z" fill="#CB3B48"/>
<path d="M16.4999 9.12567C12.4243 9.12567 9.12549 12.4238 9.12549 16.5C9.12549 20.5756 12.4237 23.8744 16.4999 23.8744C20.5756 23.8744 23.8743 20.5761 23.8743 16.5C23.8743 12.4245 20.5762 9.12567 16.4999 9.12567ZM19.9707 19.9708C19.9235 19.9708 18.7613 21.4084 16.4999 21.4084C13.7871 21.4084 11.5915 19.2131 11.5915 16.5C11.5915 13.7873 13.7868 11.5916 16.4999 11.5916C20.9067 11.5916 23.0248 16.9168 19.9707 19.9708Z" fill="#CB3B48"/>
</svg>
