<svg width="431" height="219" viewBox="0 0 431 219" fill="none" xmlns="http://www.w3.org/2000/svg">
<g filter="url(#filter0_d)">
<rect x="30" y="30" width="73" height="5" fill="#C93A48"/>
</g>
<g filter="url(#filter1_d)">
<path d="M40.556 75.176C40.556 67.168 45.132 63.008 50.696 63.008C56.26 63.008 60.836 67.168 60.836 75.176C60.836 83.184 56.26 87.344 50.696 87.344C45.132 87.344 40.556 83.184 40.556 75.176ZM70.248 75.176C70.248 63.424 62.24 55.676 50.696 55.676C39.1 55.676 31.144 63.424 31.144 75.176C31.144 86.928 39.1 94.676 50.696 94.676C62.24 94.676 70.248 86.928 70.248 75.176ZM110.691 56.3V70.704H95.1946V56.3H86.3026V94H95.1946V78.556H110.691V94H119.583V56.3H110.691ZM123.076 94H132.54L134.776 87.292H149.336L151.624 94H161.296L147.048 56.3H137.272L123.076 94ZM142.108 65.712L146.944 80.064H137.22L142.108 65.712ZM210.988 94V56.3H202.096V86.148H192.32V56.3H183.428V86.148H173.652V56.3H164.76V94H210.988ZM218.486 94H247.398V86.148H227.378V78.556H246.306V70.704H227.378V64.1H247.398V56.3H218.486V94ZM278.751 94L287.175 63.788V94H295.807V56.3H281.923L274.539 83.34L267.311 56.3H253.271V94H261.903V63.84L270.379 94H278.751ZM51 125.56C53.44 124.24 54.84 122.6 54.84 119.4C54.84 114.48 50.48 111.52 44.24 111.52C36.68 111.52 32.48 115.92 31.84 121.68H38.56C38.68 118.8 41.08 117.16 44 117.16C46.12 117.16 48.08 118.16 48.08 120.48C48.08 122.44 46.2 123.6 43.6 123.6H40.52V128.68H43.96C46.88 128.68 48.36 129.92 48.36 132C48.36 134.4 46.92 135.76 44 135.76C40.92 135.76 38.84 134.28 38.52 131.08H31.8C32.32 137.16 36.16 141.52 44.64 141.52C49.88 141.52 55.6 138.88 55.6 132.36C55.6 128.56 54.04 126.76 51 125.56ZM56.2062 141H63.4863L65.2063 135.84H76.4062L78.1663 141H85.6063L74.6463 112H67.1263L56.2062 141ZM70.8463 119.24L74.5663 130.28H67.0863L70.8463 119.24ZM88.2706 141H101.431C108.471 141 113.151 138.6 113.151 132.08C113.151 128.56 111.271 126.52 108.551 125.56C110.791 124.16 111.991 122.2 111.991 119.52C111.991 113.44 107.271 112 100.911 112H88.2706V141ZM95.1106 128.68H101.511C104.431 128.68 105.911 129.92 105.911 131.96C105.911 134 104.431 135.24 101.511 135.24H95.1106V128.68ZM95.1106 117.76H101.151C103.551 117.76 104.871 118.84 104.871 120.64C104.871 122.44 103.551 123.6 101.151 123.6H95.1106V117.76ZM117.333 141H139.573V134.96H124.173V129.12H138.733V123.08H124.173V118H139.573V112H117.333V141ZM148.651 146.8V141H166.891V146.8H173.331V134.96H169.531V112H148.371L147.971 122.16C147.651 130.08 147.251 134.96 143.851 134.96H142.211V146.8H148.651ZM151.731 134.96C153.531 132.6 154.331 129 154.611 124L154.891 118.04H162.691V134.96H151.731ZM177.411 141H199.651V134.96H184.251V129.12H198.811V123.08H184.251V118H199.651V112H177.411V141ZM222.929 112V123.08H211.009V112H204.169V141H211.009V129.12H222.929V141H229.769V112H222.929ZM235.536 141H242.136L254.456 122.2V141H261.056V112H254.456L242.136 130.8V112H235.536V141ZM266.825 141H273.425L285.745 122.2V141H292.345V112H285.745L273.425 130.8V112H266.825V141Z" fill="white"/>
</g>
<line x1="285.926" y1="131.454" x2="296.712" y2="91.199" stroke="#444444" stroke-width="0.775484"/>
<line y1="-0.387742" x2="41.6746" y2="-0.387742" transform="matrix(-0.965926 -0.258819 -0.258819 0.965926 336.67 102.473)" stroke="#444444" stroke-width="0.775484"/>
<circle cx="296.714" cy="91.7142" r="2.71419" fill="#C4C4C4"/>
<g filter="url(#filter2_d)">
<path d="M241.877 165.411C239.736 161.702 241.007 156.959 244.716 154.817L274.241 137.771L310.482 116.847L346.735 95.9168L376.248 78.8775C379.957 76.7361 384.7 78.0069 386.841 81.716L396.573 98.5723C398.714 102.281 397.444 107.024 393.735 109.166L262.203 185.106C258.494 187.247 253.751 185.976 251.609 182.267L241.877 165.411Z" fill="white"/>
<path d="M241.877 165.411C239.736 161.702 241.007 156.959 244.716 154.817L274.241 137.771L310.482 116.847L346.735 95.9168L376.248 78.8775C379.957 76.7361 384.7 78.0069 386.841 81.716L396.573 98.5723C398.714 102.281 397.444 107.024 393.735 109.166L262.203 185.106C258.494 187.247 253.751 185.976 251.609 182.267L241.877 165.411Z" fill="#C93A48"/>
</g>
<path d="M265.117 170.728L262.555 160.762L267.511 169.346L269.963 167.93L263.779 157.218L259.834 159.496L262.172 168.39L255.682 161.893L251.693 164.196L257.877 174.908L260.33 173.492L255.382 164.922L262.738 172.101L265.117 170.728ZM275.621 164.664C278.399 163.06 280.098 161.192 278.426 158.297C276.754 155.401 274.27 155.909 271.492 157.513L270.487 158.093L268.432 154.532L265.905 155.991L272.09 166.703L275.621 164.664ZM271.716 160.22L272.794 159.598C273.976 158.915 275.052 158.629 275.752 159.841C276.434 161.023 275.648 161.811 274.466 162.494L273.388 163.116L271.716 160.22ZM284.279 159.665L278.094 148.953L275.568 150.412L281.752 161.124L284.279 159.665ZM288.28 150.223C286.967 147.948 287.585 146.015 289.165 145.103C290.746 144.19 292.729 144.621 294.043 146.897C295.356 149.172 294.739 151.105 293.158 152.017C291.577 152.93 289.594 152.499 288.28 150.223ZM296.717 145.353C294.789 142.013 291.243 141.126 287.963 143.019C284.668 144.922 283.678 148.428 285.606 151.767C287.534 155.107 291.066 156.003 294.36 154.101C297.64 152.207 298.645 148.692 296.717 145.353ZM303.269 148.701L305.811 147.234L300.906 138.738L304.348 136.75L303.069 134.534L293.657 139.968L294.937 142.184L298.364 140.205L303.269 148.701ZM316.618 140.994L319.632 139.254L312.306 135.88L313.285 128.636L310.36 130.325L309.612 137.356L309.597 137.364L306.74 132.415L304.213 133.873L310.398 144.585L312.924 143.127L309.93 137.941L309.945 137.932L316.618 140.994ZM314.963 127.667L321.147 138.379L323.674 136.92L321.533 133.212L323.128 132.291C325.906 130.687 327.588 128.79 325.959 125.968C324.338 123.161 321.863 123.684 319.085 125.287L314.963 127.667ZM320.387 127.372C321.569 126.69 322.636 126.389 323.285 127.512C323.933 128.635 323.156 129.438 321.974 130.12L320.304 131.084L318.718 128.336L320.387 127.372ZM334.764 130.517C337.542 128.914 339.241 127.046 337.569 124.15C335.897 121.254 333.413 121.763 330.635 123.366L329.631 123.946L327.575 120.386L325.048 121.844L331.233 132.556L334.764 130.517ZM330.859 126.074L331.938 125.451C333.12 124.769 334.195 124.483 334.895 125.694C335.577 126.876 334.791 127.665 333.609 128.347L332.531 128.97L330.859 126.074ZM343.422 125.519L337.238 114.807L334.711 116.266L340.896 126.977L343.422 125.519ZM354.104 119.351L347.92 108.64L340.399 112.982L342.377 116.646C343.736 119.171 344.971 121.65 343.597 122.443L343.271 122.631L344.56 124.862L345.313 124.427C348.017 122.866 347.056 119.461 345.263 116.083L344.081 113.831L346.681 112.329L351.578 120.81L354.104 119.351ZM356.238 118.12L358.676 116.712L359.217 107.141L363.226 114.085L365.664 112.677L359.48 101.965L357.042 103.373L356.5 112.945L352.491 106L350.053 107.408L356.238 118.12ZM372.732 103.278C373.345 105.091 372.451 106.238 371.342 106.877C369.806 107.764 367.939 107.227 366.634 104.966C365.372 102.78 365.828 100.841 367.321 99.9797C368.517 99.2887 369.963 99.3013 371.088 100.602L373.57 99.1689C371.808 96.9357 368.881 96.3012 366.207 97.8452C362.853 99.7816 362.006 103.127 363.96 106.51C365.939 109.938 369.191 110.897 372.53 108.969C375.234 107.408 376.248 104.557 375.214 101.845L372.732 103.278ZM378.876 105.049L382.851 102.755C385.628 101.151 387.328 99.2833 385.656 96.3874C383.984 93.4915 381.5 93.9998 378.722 95.6035L377.274 96.4395L375.218 92.8787L372.692 94.3374L378.876 105.049ZM380.174 101.463L378.502 98.5671L380.024 97.6885C381.206 97.006 382.282 96.7198 382.982 97.9314C383.664 99.1134 382.878 99.9019 381.696 100.584L380.174 101.463Z" fill="white"/>
<defs>
<filter id="filter0_d" x="0" y="0" width="133" height="65" filterUnits="userSpaceOnUse" color-interpolation-filters="sRGB">
<feFlood flood-opacity="0" result="BackgroundImageFix"/>
<feColorMatrix in="SourceAlpha" type="matrix" values="0 0 0 0 0 0 0 0 0 0 0 0 0 0 0 0 0 0 127 0"/>
<feOffset/>
<feGaussianBlur stdDeviation="15"/>
<feColorMatrix type="matrix" values="0 0 0 0 0.741176 0 0 0 0 0.176471 0 0 0 0 0.262745 0 0 0 1 0"/>
<feBlend mode="normal" in2="BackgroundImageFix" result="effect1_dropShadow"/>
<feBlend mode="normal" in="SourceGraphic" in2="effect1_dropShadow" result="shape"/>
</filter>
<filter id="filter1_d" x="1.14404" y="25.676" width="324.663" height="151.124" filterUnits="userSpaceOnUse" color-interpolation-filters="sRGB">
<feFlood flood-opacity="0" result="BackgroundImageFix"/>
<feColorMatrix in="SourceAlpha" type="matrix" values="0 0 0 0 0 0 0 0 0 0 0 0 0 0 0 0 0 0 127 0"/>
<feOffset/>
<feGaussianBlur stdDeviation="15"/>
<feColorMatrix type="matrix" values="0 0 0 0 1 0 0 0 0 1 0 0 0 0 1 0 0 0 0.32 0"/>
<feBlend mode="normal" in2="BackgroundImageFix" result="effect1_dropShadow"/>
<feBlend mode="normal" in="SourceGraphic" in2="effect1_dropShadow" result="shape"/>
</filter>
<filter id="filter2_d" x="208" y="45" width="222.45" height="173.983" filterUnits="userSpaceOnUse" color-interpolation-filters="sRGB">
<feFlood flood-opacity="0" result="BackgroundImageFix"/>
<feColorMatrix in="SourceAlpha" type="matrix" values="0 0 0 0 0 0 0 0 0 0 0 0 0 0 0 0 0 0 127 0"/>
<feOffset/>
<feGaussianBlur stdDeviation="15"/>
<feColorMatrix type="matrix" values="0 0 0 0 0.741176 0 0 0 0 0.176471 0 0 0 0 0.262745 0 0 0 1 0"/>
<feBlend mode="normal" in2="BackgroundImageFix" result="effect1_dropShadow"/>
<feBlend mode="normal" in="SourceGraphic" in2="effect1_dropShadow" result="shape"/>
</filter>
</defs>
</svg>
