<svg width="31" height="30" viewBox="0 0 31 30" fill="none" xmlns="http://www.w3.org/2000/svg">
<circle cx="15.8213" cy="15" r="15" fill="#101010"/>
<path d="M15.8982 6.74272C12.4814 6.74272 9.2368 6.43902 7.99749 9.61711C7.48558 10.9297 7.55992 12.6344 7.55992 15.0753C7.55992 17.2173 7.49122 19.2304 7.99749 20.5326C9.23397 23.7126 12.5049 23.408 15.8963 23.408C19.1682 23.408 22.5417 23.7483 23.7961 20.5326C24.3089 19.2069 24.2337 17.5276 24.2337 15.0753C24.2337 11.8201 24.4134 9.71866 22.8334 8.14089C21.2337 6.54245 19.0703 6.74272 15.8944 6.74272H15.8982ZM15.151 8.24432C22.2782 8.23304 23.1854 7.44134 22.6848 18.4396C22.5069 22.3295 19.5427 21.9026 15.8991 21.9026C9.25562 21.9026 9.06459 21.7127 9.06459 15.0716C9.06459 8.35339 9.59156 8.24808 15.151 8.24244V8.24432ZM20.3492 9.62745C19.7968 9.62745 19.3489 10.075 19.3489 10.627C19.3489 11.1789 19.7968 11.6265 20.3492 11.6265C20.9015 11.6265 21.3495 11.1789 21.3495 10.627C21.3495 10.075 20.9015 9.62745 20.3492 9.62745ZM15.8982 10.7962C13.5334 10.7962 11.6166 12.7125 11.6166 15.0753C11.6166 17.4382 13.5334 19.3535 15.8982 19.3535C18.263 19.3535 20.1788 17.4382 20.1788 15.0753C20.1788 12.7125 18.263 10.7962 15.8982 10.7962ZM15.8982 12.2978C19.5728 12.2978 19.5775 17.8529 15.8982 17.8529C12.2245 17.8529 12.2189 12.2978 15.8982 12.2978Z" fill="#BD2D43"/>
</svg>
