<svg width="31" height="30" viewBox="0 0 31 30" fill="none" xmlns="http://www.w3.org/2000/svg">
<circle cx="15.9087" cy="15" r="15" fill="#101010"/>
<path d="M6.55453 14.7819L10.3202 16.1874L11.7777 20.8749C11.871 21.1751 12.2381 21.286 12.4818 21.0868L14.5808 19.3756C14.8009 19.1964 15.1143 19.1874 15.3442 19.3543L19.1301 22.103C19.3908 22.2925 19.7601 22.1496 19.8255 21.8347L22.5989 8.49412C22.6702 8.15005 22.3321 7.86302 22.0045 7.98973L6.55012 13.9516C6.16873 14.0987 6.17206 14.6386 6.55453 14.7819ZM11.5428 15.4392L18.9024 10.9065C19.0346 10.8253 19.1707 11.0041 19.0571 11.1095L12.9834 16.7553C12.7699 16.954 12.6322 17.22 12.5932 17.5087L12.3863 19.0419C12.3589 19.2466 12.0713 19.267 12.0148 19.0688L11.2191 16.2729C11.128 15.954 11.2608 15.6133 11.5428 15.4392Z" fill="#BD2D43"/>
</svg>
