<svg width="31" height="30" viewBox="0 0 31 30" fill="none" xmlns="http://www.w3.org/2000/svg">
<circle cx="15.2656" cy="15" r="15" fill="#101010"/>
<path fill-rule="evenodd" clip-rule="evenodd" d="M20.7747 9.35413C19.2927 7.86315 17.3218 7.04168 15.222 7.0408C10.8953 7.0408 7.37398 10.5792 7.37224 14.9282C7.37166 16.3184 7.73307 17.6755 8.42003 18.8717L7.3064 22.9592L11.4677 21.8623C12.6143 22.4908 13.9052 22.822 15.2188 22.8224H15.2221C19.5484 22.8224 23.0701 19.2837 23.0717 14.9345C23.0726 12.8268 22.2568 10.845 20.7747 9.35413ZM15.222 21.4902H15.2193C14.0486 21.4898 12.9005 21.1736 11.8986 20.5764L11.6605 20.4342L9.19111 21.0852L9.85022 18.6659L9.69504 18.4178C9.04192 17.3739 8.69704 16.1674 8.69762 14.9287C8.69897 11.3139 11.6259 8.37303 15.2246 8.37303C16.9673 8.37362 18.6055 9.05644 19.8373 10.2957C21.069 11.5349 21.747 13.1822 21.7464 14.934C21.7449 18.5491 18.8182 21.4902 15.222 21.4902ZM18.8008 16.58C18.6047 16.4813 17.6403 16.0046 17.4605 15.9387C17.2809 15.873 17.1499 15.8402 17.0193 16.0374C16.8885 16.2347 16.5127 16.6787 16.3982 16.8101C16.2837 16.9417 16.1695 16.9582 15.9733 16.8595C15.7771 16.7609 15.1452 16.5527 14.3959 15.8812C13.8129 15.3586 13.4193 14.7132 13.3048 14.5159C13.1905 14.3185 13.3039 14.2221 13.3909 14.1137C13.6032 13.8488 13.8158 13.571 13.8812 13.4395C13.9466 13.308 13.9139 13.1928 13.8647 13.0942C13.8158 12.9956 13.4236 12.0255 13.2602 11.6307C13.1008 11.2466 12.9393 11.2985 12.8188 11.2924C12.7045 11.2867 12.5737 11.2855 12.4429 11.2855C12.3121 11.2855 12.0996 11.3348 11.9198 11.5322C11.7401 11.7295 11.2334 12.2063 11.2334 13.1764C11.2334 14.1465 11.9362 15.0837 12.0343 15.2153C12.1323 15.3468 13.4174 17.3376 15.3848 18.1912C15.8528 18.3945 16.2181 18.5156 16.503 18.6065C16.9729 18.7565 17.4004 18.7353 17.7384 18.6846C18.1153 18.628 18.8987 18.2078 19.0623 17.7474C19.2257 17.287 19.2257 16.8924 19.1766 16.8101C19.1277 16.7279 18.9969 16.6787 18.8008 16.58Z" fill="white"/>
<path fill-rule="evenodd" clip-rule="evenodd" d="M20.7747 9.35413C19.2927 7.86315 17.3218 7.04168 15.222 7.0408C10.8953 7.0408 7.37398 10.5792 7.37224 14.9282C7.37166 16.3184 7.73307 17.6755 8.42003 18.8717L7.3064 22.9592L11.4677 21.8623C12.6143 22.4908 13.9052 22.822 15.2188 22.8224H15.2221C19.5484 22.8224 23.0701 19.2837 23.0717 14.9345C23.0726 12.8268 22.2568 10.845 20.7747 9.35413ZM15.222 21.4902H15.2193C14.0486 21.4898 12.9005 21.1736 11.8986 20.5764L11.6605 20.4342L9.19111 21.0852L9.85022 18.6659L9.69504 18.4178C9.04192 17.3739 8.69704 16.1674 8.69762 14.9287C8.69897 11.3139 11.6259 8.37303 15.2246 8.37303C16.9673 8.37362 18.6055 9.05644 19.8373 10.2957C21.069 11.5349 21.747 13.1822 21.7464 14.934C21.7449 18.5491 18.8182 21.4902 15.222 21.4902ZM18.8008 16.58C18.6047 16.4813 17.6403 16.0046 17.4605 15.9387C17.2809 15.873 17.1499 15.8402 17.0193 16.0374C16.8885 16.2347 16.5127 16.6787 16.3982 16.8101C16.2837 16.9417 16.1695 16.9582 15.9733 16.8595C15.7771 16.7609 15.1452 16.5527 14.3959 15.8812C13.8129 15.3586 13.4193 14.7132 13.3048 14.5159C13.1905 14.3185 13.3039 14.2221 13.3909 14.1137C13.6032 13.8488 13.8158 13.571 13.8812 13.4395C13.9466 13.308 13.9139 13.1928 13.8647 13.0942C13.8158 12.9956 13.4236 12.0255 13.2602 11.6307C13.1008 11.2466 12.9393 11.2985 12.8188 11.2924C12.7045 11.2867 12.5737 11.2855 12.4429 11.2855C12.3121 11.2855 12.0996 11.3348 11.9198 11.5322C11.7401 11.7295 11.2334 12.2063 11.2334 13.1764C11.2334 14.1465 11.9362 15.0837 12.0343 15.2153C12.1323 15.3468 13.4174 17.3376 15.3848 18.1912C15.8528 18.3945 16.2181 18.5156 16.503 18.6065C16.9729 18.7565 17.4004 18.7353 17.7384 18.6846C18.1153 18.628 18.8987 18.2078 19.0623 17.7474C19.2257 17.287 19.2257 16.8924 19.1766 16.8101C19.1277 16.7279 18.9969 16.6787 18.8008 16.58Z" fill="#BD2D43"/>
</svg>
