<svg width="82" height="82" viewBox="0 0 82 82" fill="none" xmlns="http://www.w3.org/2000/svg">
<g filter="url(#filter0_d)">
<rect x="16" y="16" width="50" height="50" rx="7.57576" fill="#1B1B1B"/>
</g>
<path d="M52.5433 45.3006C50.8597 45.3006 49.2065 45.0373 47.64 44.5196C46.8723 44.2577 45.9287 44.4979 45.4602 44.9791L42.3681 47.3133C38.7821 45.3991 36.5733 43.191 34.6852 39.6319L36.9507 36.6204C37.5393 36.0326 37.7505 35.1739 37.4975 34.3683C36.9776 32.7935 36.7135 31.1411 36.7135 29.4567C36.7136 28.2399 35.7236 27.25 34.5069 27.25H29.4567C28.2399 27.25 27.25 28.2399 27.25 29.4567C27.25 43.4036 38.5964 54.75 52.5433 54.75C53.7601 54.75 54.75 53.7601 54.75 52.5433V47.5072C54.7499 46.2905 53.76 45.3006 52.5433 45.3006Z" fill="white"/>
<defs>
<filter id="filter0_d" x="0.848485" y="0.848485" width="80.303" height="80.303" filterUnits="userSpaceOnUse" color-interpolation-filters="sRGB">
<feFlood flood-opacity="0" result="BackgroundImageFix"/>
<feColorMatrix in="SourceAlpha" type="matrix" values="0 0 0 0 0 0 0 0 0 0 0 0 0 0 0 0 0 0 127 0"/>
<feOffset/>
<feGaussianBlur stdDeviation="7.57576"/>
<feColorMatrix type="matrix" values="0 0 0 0 0.741176 0 0 0 0 0.176471 0 0 0 0 0.262745 0 0 0 0.5 0"/>
<feBlend mode="normal" in2="BackgroundImageFix" result="effect1_dropShadow"/>
<feBlend mode="normal" in="SourceGraphic" in2="effect1_dropShadow" result="shape"/>
</filter>
</defs>
</svg>
