<svg width="50" height="50" viewBox="0 0 50 50" fill="none" xmlns="http://www.w3.org/2000/svg">
<rect width="50" height="50" rx="7.57576" fill="#CB3B48"/>
<path d="M25.326 24.2796C27.1504 24.2796 28.7302 23.6252 30.0209 22.3343C31.3117 21.0435 31.966 19.4642 31.966 17.6396C31.966 15.8156 31.3117 14.2361 30.0207 12.9449C28.7297 11.6543 27.1502 11 25.326 11C23.5015 11 21.9221 11.6543 20.6313 12.9451C19.3406 14.2359 18.686 15.8154 18.686 17.6396C18.686 19.4642 19.3406 21.0437 20.6316 22.3345C21.9225 23.625 23.5021 24.2796 25.326 24.2796V24.2796Z" fill="white"/>
<path d="M36.9443 32.1984C36.907 31.6612 36.8317 31.0752 36.7209 30.4565C36.609 29.833 36.4649 29.2437 36.2925 28.7051C36.1143 28.1483 35.872 27.5985 35.5725 27.0717C35.2617 26.5248 34.8965 26.0487 34.4868 25.6568C34.0584 25.2469 33.5338 24.9173 32.9272 24.6769C32.3228 24.4378 31.6529 24.3166 30.9363 24.3166C30.6549 24.3166 30.3827 24.4321 29.8571 24.7743C29.5336 24.9852 29.1553 25.2292 28.7329 25.4991C28.3718 25.7292 27.8826 25.9448 27.2783 26.1399C26.6888 26.3307 26.0902 26.4274 25.4994 26.4274C24.9086 26.4274 24.3102 26.3307 23.72 26.1399C23.1164 25.945 22.6272 25.7294 22.2664 25.4993C21.8481 25.232 21.4695 24.988 21.1412 24.7741C20.6162 24.4319 20.3439 24.3164 20.0624 24.3164C19.3456 24.3164 18.676 24.4378 18.0717 24.6771C17.4655 24.9171 16.9408 25.2467 16.5119 25.657C16.1024 26.0491 15.7371 26.525 15.4266 27.0717C15.1273 27.5985 14.8851 28.1481 14.7067 28.7053C14.5344 29.2439 14.3904 29.833 14.2785 30.4565C14.1676 31.0744 14.0923 31.6606 14.0551 32.199C14.0185 32.7265 14 33.274 14 33.8269C14 35.266 14.4575 36.431 15.3595 37.2902C16.2505 38.138 17.4294 38.5681 18.8629 38.5681H32.137C33.5706 38.5681 34.7491 38.1382 35.6402 37.2902C36.5425 36.4316 37 35.2664 37 33.8267C36.9998 33.2712 36.9811 32.7234 36.9443 32.1984V32.1984Z" fill="white"/>
</svg>
