<svg width="50" height="50" viewBox="0 0 50 50" fill="none" xmlns="http://www.w3.org/2000/svg">
<rect width="50" height="50" rx="7.57576" fill="#1B1B1B"/>
<path d="M36.5433 29.3006C34.8597 29.3006 33.2065 29.0373 31.64 28.5196C30.8723 28.2577 29.9287 28.4979 29.4602 28.9791L26.3681 31.3133C22.7821 29.3991 20.5733 27.191 18.6852 23.6319L20.9507 20.6204C21.5393 20.0326 21.7505 19.1739 21.4975 18.3683C20.9776 16.7935 20.7135 15.1411 20.7135 13.4567C20.7136 12.2399 19.7236 11.25 18.5069 11.25H13.4567C12.2399 11.25 11.25 12.2399 11.25 13.4567C11.25 27.4036 22.5964 38.75 36.5433 38.75C37.7601 38.75 38.75 37.7601 38.75 36.5433V31.5072C38.7499 30.2905 37.76 29.3006 36.5433 29.3006Z" fill="white"/>
</svg>
